<svg width="35" height="24" viewBox="0 0 35 24" fill="none" xmlns="http://www.w3.org/2000/svg">
<rect x="0.5" y="0.5" width="34" height="23" rx="3.5" fill="white" stroke="#D9D9D9"/>
<path d="M17.563 4C22.0166 4.00014 25.6264 7.61065 25.6265 12.0645C25.6265 16.5183 22.0166 20.1288 17.563 20.1289C13.1093 20.1289 9.49854 16.5184 9.49854 12.0645C9.49861 7.61057 13.1093 4 17.563 4ZM17.0132 8.4502L15.2212 8.00781L14.9849 8.95312C14.9849 8.95312 15.64 9.1029 15.6304 9.11328C15.99 9.20302 16.0555 9.43991 16.0444 9.62793L15.0474 13.6123C15.0032 13.7207 14.8904 13.8842 14.6392 13.8223C14.612 13.8244 13.9937 13.6611 13.9937 13.6611L13.5522 14.6748L15.3413 15.125L14.9741 16.5957L15.8618 16.8164L16.2261 15.3613C16.4683 15.4263 16.704 15.487 16.9341 15.5439L16.5708 16.9922L17.4595 17.2129L17.8276 15.7451C19.343 16.0305 20.4829 15.9157 20.9624 14.5508C21.2149 13.6021 20.9431 12.8168 20.146 12.4033C20.7268 12.2702 21.1637 11.8899 21.2808 11.1045C21.4417 10.031 20.6213 9.45359 19.4995 9.06836L19.8638 7.61426L18.9751 7.39258L18.6206 8.80957C18.3874 8.75164 18.1474 8.69648 17.9087 8.64258L18.2651 7.2168L17.3774 6.99609L17.0132 8.4502ZM17.0034 12.3477C17.6061 12.4974 19.5371 12.7942 19.2505 13.9404C18.9751 15.0388 17.1174 14.4451 16.5151 14.2959L17.0034 12.3477ZM17.6685 9.68848C18.1701 9.81352 19.7856 10.0461 19.5249 11.0889C19.2737 12.0871 17.7276 11.5801 17.2261 11.4561L17.6685 9.68848Z" fill="#F7931A"/>
</svg>
