<svg width="35" height="24" viewBox="0 0 35 24" fill="none" xmlns="http://www.w3.org/2000/svg">
<rect x="0.5" y="0.5" width="34" height="23" rx="3.5" fill="white" stroke="#D9D9D9"/>
<path d="M15 23L34 17.25V20C34 21.6569 32.6569 23 31 23H15Z" fill="#FD6020"/>
<path d="M15.1846 9.11047C15.5504 9.11047 15.9686 9.1651 16.2822 9.38V10.4542C16.0209 10.1319 15.6027 9.91711 15.1846 9.91711C14.3484 9.97089 13.6695 10.7226 13.7217 11.5822V11.6896C13.7217 12.5492 14.4011 13.1945 15.2373 13.1945C15.6551 13.1943 16.021 12.9795 16.2822 12.6573V13.7316C15.9165 13.8927 15.5507 14 15.1328 14.0001C13.8262 14.0001 12.7803 12.8716 12.7803 11.5284C12.7804 10.1317 13.8258 9.0031 15.1846 9.11047ZM23.3906 12.3341L24.6445 9.11047H25.585L23.6514 14.0001H23.1807L21.2471 9.11047H22.1885L23.3906 12.3341ZM11.0039 9.00305C11.4741 9.00318 11.9448 9.21888 12.3105 9.54114L11.8398 10.1857C11.6309 9.97087 11.3696 9.80986 11.1084 9.80969C10.7948 9.75597 10.5327 10.0244 10.4805 10.3468C10.4805 10.6153 10.6377 10.7228 11.1602 10.9376C12.2052 11.3673 12.4672 11.6896 12.5195 12.3341V12.4952C12.4673 13.3549 11.7874 14.0001 10.9512 13.9464C10.324 13.9464 9.69641 13.6243 9.38281 13.0333L9.95801 12.4415C10.1148 12.8176 10.4813 13.087 10.8994 13.087H10.9512C11.2648 13.087 11.5781 12.7639 11.5781 12.3878C11.578 12.1732 11.474 12.0118 11.3174 11.9044C11.1083 11.797 10.8985 11.6896 10.6895 11.6359C9.85365 11.3673 9.59282 10.9913 9.59277 10.3468V10.2931C9.64504 9.54091 10.2722 8.94932 11.0039 9.00305ZM5.56836 9.11047C6.82237 9.16441 7.8147 10.2393 7.7627 11.5284C7.76262 12.2266 7.44914 12.8712 6.92676 13.3546C6.45638 13.7307 5.88155 13.9455 5.30664 13.8917H4V9.11047H5.56836ZM9.01758 13.8927H8.12891V9.11047H9.01758V13.8927ZM28.5117 9.91711H26.8916V10.9913H28.46V11.797H26.8916V13.087H28.5117V13.8927H26.0039V9.11047H28.5117V9.91711ZM30.3936 9.11047C31.4385 9.11048 32.0133 9.59416 32.0137 10.507C32.0659 11.2053 31.5958 11.7968 30.9688 11.9044L32.3799 13.8917H31.2822L30.0801 11.9581H29.9756V13.8917H29.0869V9.11047H30.3936ZM5.14941 9.91614H4.88867V13.0861H5.14941C5.56746 13.1398 6.03797 12.9786 6.35156 12.7101C6.66494 12.3878 6.8222 11.958 6.82227 11.4747C6.82216 11.0451 6.66504 10.6144 6.35156 10.2921C6.03799 10.0238 5.56725 9.86247 5.14941 9.91614ZM29.9756 11.3136H30.2363C30.8112 11.3136 31.0732 11.0442 31.0732 10.5607C31.0729 10.1314 30.8108 9.86243 30.2363 9.86243H29.9756V11.3136Z" fill="black"/>
<path fill-rule="evenodd" clip-rule="evenodd" d="M18.9476 9C17.641 9 16.5435 10.0745 16.5435 11.4714C16.5435 12.8146 17.5888 13.9429 18.9476 13.9966C20.3065 14.0503 21.3518 12.9221 21.4041 11.5252C21.3518 10.1283 20.3065 9 18.9476 9V9Z" fill="#FD6020"/>
</svg>
