<svg width="24" height="24" viewBox="0 0 24 24" fill="none" xmlns="http://www.w3.org/2000/svg">
<g clip-path="url(#clip0_264_3277)">
<g clip-path="url(#clip1_264_3277)">
<g clip-path="url(#clip2_264_3277)">
<path d="M10.7551 8.27661C10.5263 8.27661 10.3069 8.36748 10.1452 8.52923C9.98345 8.69098 9.89258 8.91036 9.89258 9.13911C9.89258 9.36786 9.98345 9.58724 10.1452 9.74899C10.3069 9.91074 10.5263 10.0016 10.7551 10.0016H14.2051C14.4338 10.0016 14.6532 9.91074 14.815 9.74899C14.9767 9.58724 15.0676 9.36786 15.0676 9.13911C15.0676 8.91036 14.9767 8.69098 14.815 8.52923C14.6532 8.36748 14.4338 8.27661 14.2051 8.27661H10.7551Z" fill="#FF6200"/>
<path fill-rule="evenodd" clip-rule="evenodd" d="M9.56496 3C8.49525 3 7.46936 3.42345 6.71296 4.17721C5.95656 4.93096 5.53162 5.95326 5.53162 7.01923V7.75H2.96496C2.57597 7.75 2.20292 7.90398 1.92787 8.17807C1.65281 8.45217 1.49829 8.82391 1.49829 9.21154V17.9808C1.49829 19.0467 1.92323 20.069 2.67963 20.8228C3.43602 21.5765 4.46192 22 5.53162 22H19.465C20.5347 22 21.5606 21.5765 22.317 20.8228C23.0734 20.069 23.4983 19.0467 23.4983 17.9808V9.21154C23.4983 8.82391 23.3438 8.45217 23.0687 8.17807C22.7937 7.90398 22.4206 7.75 22.0316 7.75H19.465V7.01923C19.465 5.95326 19.04 4.93096 18.2836 4.17721C17.5272 3.42345 16.5013 3 15.4316 3H9.56496ZM12.4983 14.4716L7.73162 11.3045V7.01923C7.73162 6.01077 8.55296 5.19231 9.56496 5.19231H15.4316C16.4436 5.19231 17.265 6.01077 17.265 7.01923V11.3045L12.4983 14.4716ZM21.2983 11.2592V17.9808C21.2983 18.9892 20.477 19.8077 19.465 19.8077H5.53162C4.51962 19.8077 3.69829 18.9892 3.69829 17.9808V11.2592L12.4983 17.1053L21.2983 11.2592Z" fill="#FF6200"/>
</g>
</g>
</g>
<defs>
<clipPath id="clip0_264_3277">
<rect width="23" height="23" fill="white" transform="translate(0.97998 0.800049)"/>
</clipPath>
<clipPath id="clip1_264_3277">
<rect width="23" height="23" fill="white" transform="translate(0.97998 0.800049)"/>
</clipPath>
<clipPath id="clip2_264_3277">
<rect width="23" height="23" fill="white" transform="translate(0.97998 0.800049)"/>
</clipPath>
</defs>
</svg>
