<svg width="24" height="24" viewBox="0 0 24 24" fill="none" xmlns="http://www.w3.org/2000/svg">
<g clip-path="url(#clip0_264_3292)">
<g clip-path="url(#clip1_264_3292)">
<path d="M11.8608 1C5.52827 1 0.373201 6.15013 0.370901 12.482C0.369751 14.506 0.899934 16.4819 1.90513 18.223L0.346191 24L6.36406 22.5782C8.04208 23.4936 9.93106 23.9741 11.8541 23.9753H11.8585C18.1899 23.9753 23.3427 18.824 23.3462 12.4933C23.3485 9.42391 22.1548 6.53809 19.9857 4.36689C17.8166 2.19684 14.9339 1.00115 11.8608 1ZM11.8585 3.3C14.3152 3.30115 16.6239 4.25887 18.3594 5.99307C20.0949 7.72957 21.0483 10.0369 21.046 12.491C21.0437 17.5556 16.9237 21.6753 11.8563 21.6753C10.3232 21.6741 8.80458 21.2892 7.467 20.559L6.69203 20.1367L5.83618 20.3389L3.5719 20.8734L4.12449 18.8205L4.37383 17.8996L3.89761 17.073C3.09483 15.6838 2.66998 14.0955 2.67113 12.482C2.67343 7.41973 6.7946 3.3 11.8585 3.3ZM7.79496 7.18125C7.6029 7.18125 7.29235 7.25312 7.02897 7.54063C6.7656 7.82697 6.02262 8.52051 6.02262 9.93271C6.02262 11.3449 7.05143 12.71 7.1952 12.9021C7.33781 13.093 9.18107 16.0825 12.0989 17.2325C14.5233 18.1882 15.0157 17.9996 15.5425 17.9513C16.0692 17.9041 17.2418 17.2583 17.4811 16.5879C17.7203 15.9174 17.7208 15.3407 17.6495 15.2223C17.5782 15.1027 17.3867 15.0313 17.0992 14.8876C16.8128 14.7438 15.4015 14.0509 15.1382 13.9555C14.8748 13.86 14.6821 13.8117 14.4912 14.0992C14.3003 14.3867 13.7516 15.0314 13.5837 15.2223C13.4158 15.4143 13.249 15.4401 12.9615 15.2964C12.674 15.1515 11.7495 14.8476 10.6523 13.8701C9.79889 13.11 9.22306 12.1721 9.05515 11.8846C8.88838 11.5982 9.03942 11.4409 9.18319 11.2983C9.312 11.1695 9.46847 10.9631 9.61223 10.7952C9.75485 10.6273 9.8043 10.5077 9.89976 10.3168C9.99522 10.1259 9.94636 9.95742 9.87505 9.81367C9.80374 9.66992 9.24533 8.25247 8.99 7.68437C8.77493 7.20712 8.54778 7.19604 8.34306 7.18799C8.1763 7.18109 7.98588 7.18125 7.79496 7.18125Z" fill="#FF6200"/>
</g>
</g>
<defs>
<clipPath id="clip0_264_3292">
<rect width="23" height="23" fill="white" transform="translate(0.498291 0.800049)"/>
</clipPath>
<clipPath id="clip1_264_3292">
<rect width="23" height="23" fill="white" transform="translate(0.498291 0.800049)"/>
</clipPath>
</defs>
</svg>
