<svg width="35" height="24" viewBox="0 0 35 24" fill="none" xmlns="http://www.w3.org/2000/svg">
<rect x="0.5" y="0.5" width="34" height="23" rx="3.5" fill="white" stroke="#D9D9D9"/>
<path d="M22.3181 12.2874C22.8318 12.2986 23.3484 12.2647 23.86 12.305C24.3781 12.4016 24.503 13.186 24.0427 13.4429C23.7286 13.6121 23.3555 13.5059 23.015 13.5358H22.3181V12.2874ZM24.157 10.8744C24.2711 11.2772 23.8828 11.6389 23.4948 11.5834H22.3181C22.3263 11.2035 22.302 10.7912 22.33 10.4313C22.8014 10.4446 23.2772 10.4043 23.7459 10.4524C23.9472 10.503 24.1158 10.6686 24.157 10.8744ZM26.989 4.90054C27.0108 5.66984 26.9921 6.4798 26.9984 7.26471C26.997 10.4559 27.0015 13.6469 26.9959 16.8382C26.9752 18.0342 25.9153 19.0734 24.7277 19.0973C23.5388 19.1021 22.3498 19.098 21.1608 19.0993V14.275C22.4563 14.2683 23.7524 14.2886 25.0474 14.2649C25.6481 14.2272 26.3061 13.8308 26.334 13.1697C26.4048 12.5058 25.7788 12.0465 25.1845 11.974C24.9561 11.9681 24.9627 11.9074 25.1845 11.881C25.7513 11.7585 26.1964 11.1718 26.0297 10.5843C25.8876 9.9663 25.2045 9.72713 24.6364 9.72831C23.4781 9.72045 22.3195 9.72722 21.1611 9.72493C21.1686 8.82428 21.1455 7.92267 21.1735 7.02268C21.2653 5.84831 22.3519 4.87984 23.5229 4.90085C24.6784 4.90067 25.8337 4.90067 26.989 4.90063V4.90054Z" fill="url(#paint0_linear_264_3178)"/>
<path d="M8.07061 7.14441C8.10019 5.95034 9.16462 4.91967 10.3508 4.90222C11.5352 4.89857 12.7198 4.90169 13.9043 4.90064C13.901 8.89572 13.9107 12.8912 13.8994 16.8861C13.8538 18.0657 12.8009 19.0767 11.6277 19.0976C10.441 19.1019 9.25421 19.0982 8.06749 19.0994V14.1124C9.22019 14.3847 10.429 14.5006 11.6049 14.32C12.3079 14.2069 13.0769 13.8617 13.3149 13.1324C13.49 12.5086 13.3915 11.8521 13.4175 11.2119V9.72503H11.3824C11.3733 10.7084 11.4011 11.6935 11.3677 12.6757C11.3128 13.2794 10.715 13.663 10.1456 13.6425C9.43945 13.65 8.04014 13.1307 8.04014 13.1307C8.03663 11.2883 8.06063 8.98091 8.07061 7.14458V7.14441Z" fill="url(#paint1_linear_264_3178)"/>
<path d="M14.6633 10.3246C14.5562 10.3473 14.6418 9.95972 14.6144 9.81268C14.6217 8.88298 14.5991 7.95227 14.6268 7.02322C14.7184 5.84388 15.8133 4.87299 16.989 4.9006H20.4514C20.4482 8.89568 20.4578 12.8912 20.4466 16.8861C20.4009 18.0656 19.348 19.0766 18.1747 19.0975C16.988 19.102 15.8011 19.0982 14.6143 19.0994V13.6355C15.4249 14.3005 16.5265 14.404 17.5363 14.4058C18.2975 14.4055 19.0543 14.2882 19.7936 14.1126V13.1116C18.9605 13.5268 17.9811 13.7906 17.0576 13.552C16.4133 13.3917 15.9457 12.7691 15.9561 12.1042C15.8815 11.4128 16.2867 10.6828 16.9662 10.4773C17.8098 10.2132 18.7292 10.4152 19.5199 10.7585C19.6893 10.8472 19.8613 10.9573 19.7936 10.6741V9.88728C18.4711 9.57263 17.0636 9.45685 15.735 9.79914C15.3504 9.90763 14.9757 10.0722 14.6633 10.3247V10.3246Z" fill="url(#paint2_linear_264_3178)"/>
<defs>
<linearGradient id="paint0_linear_264_3178" x1="21.121" y1="11.6963" x2="26.9616" y2="11.6963" gradientUnits="userSpaceOnUse">
<stop stop-color="#58B03A"/>
<stop offset="1" stop-color="#55B330"/>
</linearGradient>
<linearGradient id="paint1_linear_264_3178" x1="7.9433" y1="12.136" x2="13.8086" y2="12.136" gradientUnits="userSpaceOnUse">
<stop stop-color="#0F6EB6"/>
<stop offset="1" stop-color="#006DBA"/>
</linearGradient>
<linearGradient id="paint2_linear_264_3178" x1="14.6058" y1="11.834" x2="20.4503" y2="11.834" gradientUnits="userSpaceOnUse">
<stop stop-color="#DE0D3D"/>
<stop offset="1" stop-color="#E30138"/>
</linearGradient>
</defs>
</svg>
