<svg width="35" height="24" viewBox="0 0 35 24" fill="none" xmlns="http://www.w3.org/2000/svg">
<rect x="0.5" y="0.5" width="34" height="23" rx="3.5" fill="white" stroke="#D9D9D9"/>
<path d="M13.2715 5.224C17.0399 5.22424 20.0947 8.31506 20.0947 12.1273C20.0945 15.9394 17.0398 19.0294 13.2715 19.0297C9.50293 19.0297 6.44744 15.9396 6.44727 12.1273C6.44727 8.31491 9.50282 5.224 13.2715 5.224Z" fill="#ED0006"/>
<path d="M22.124 5.224C25.8925 5.22424 28.9473 8.31506 28.9473 12.1273C28.9471 15.9394 25.8924 19.0294 22.124 19.0297C18.3555 19.0297 15.3 15.9396 15.2998 12.1273C15.2998 8.31491 18.3554 5.224 22.124 5.224Z" fill="#0099DF"/>
<path d="M17.6973 6.875C19.1639 8.14112 20.0947 10.0236 20.0947 12.127C20.0947 14.2301 19.1636 16.1118 17.6973 17.3779C16.2309 16.1118 15.2998 14.23 15.2998 12.127C15.2998 10.0236 16.2307 8.14112 17.6973 6.875Z" fill="#6C6BBD"/>
</svg>
