<svg width="19" height="20" viewBox="0 0 19 20" fill="none" xmlns="http://www.w3.org/2000/svg">
<g clip-path="url(#clip0_432_2826)">
<path d="M15.5079 3.24446C15.4235 3.18774 15.3392 3.18775 15.2548 3.2161C14.5517 3.52804 13.8204 3.30118 13.3985 2.73401C13.2017 2.47879 13.0892 2.13849 13.0892 1.82655C13.0892 1.74148 13.061 1.68476 13.0048 1.62804C12.9485 1.57133 12.8923 1.54297 12.8079 1.54297H9.93916C9.77041 1.54297 9.65791 1.6564 9.65791 1.82655V11.8937C9.65791 11.9221 9.65791 11.9221 9.65791 11.9504C9.60166 12.4609 9.20791 12.8295 8.70166 12.8295C8.16728 12.8295 7.71729 12.3758 7.71729 11.837C7.71729 11.3266 8.08291 10.9295 8.58916 10.8728C8.72978 10.8445 8.84229 10.731 8.84229 10.5892V7.29969C8.84229 7.12954 8.72978 7.0161 8.56104 7.0161C8.56104 7.0161 8.53291 7.0161 8.50479 7.0161C5.91728 7.12954 3.92041 9.22804 3.92041 11.837C3.92041 14.5027 6.05791 16.6579 8.70166 16.6579C11.1767 16.6579 13.2579 14.7295 13.4548 12.2624C13.4829 12.234 13.4829 12.1773 13.4829 12.1489V6.67581C14.1017 6.8176 14.7485 6.87431 15.4235 6.76088C15.5642 6.73252 15.6485 6.61909 15.6485 6.4773V3.47133C15.6485 3.38625 15.5923 3.30118 15.5079 3.24446ZM15.086 6.25043C14.4392 6.30715 13.8485 6.25043 13.2579 6.05192C13.1735 6.02357 13.0892 6.05192 13.0048 6.08028C12.9204 6.137 12.8923 6.22207 12.8923 6.30715V12.0355C12.8923 12.0639 12.8923 12.0922 12.8642 12.1206C12.7235 14.3325 10.8673 16.0907 8.67354 16.0907C6.33916 16.0907 4.45479 14.1907 4.45479 11.837C4.45479 9.62506 6.08604 7.81013 8.25166 7.61163V10.3624C7.60479 10.5609 7.12666 11.1564 7.12666 11.837C7.12666 12.6877 7.82979 13.3967 8.67354 13.3967C9.43291 13.3967 10.0798 12.8295 10.1923 12.0922C10.2204 12.0639 10.2204 12.0071 10.2204 11.9788V2.11013H12.5548C12.611 2.47879 12.7517 2.79073 12.9485 3.07431C13.4267 3.72655 14.2704 4.06685 15.086 3.86834V6.25043Z" fill="#FF6200"/>
</g>
<defs>
<clipPath id="clip0_432_2826">
<rect width="18" height="19" fill="white" transform="translate(0.77002 0.0117188)"/>
</clipPath>
</defs>
</svg>
