<svg width="24" height="24" viewBox="0 0 24 24" fill="none" xmlns="http://www.w3.org/2000/svg">
<g clip-path="url(#clip0_264_3285)">
<g clip-path="url(#clip1_264_3285)">
<path fill-rule="evenodd" clip-rule="evenodd" d="M6.68354 1.19897C3.45072 1.19897 0.534823 3.87387 1.06672 7.33325C1.73558 11.6885 3.36313 15.3086 6.03538 18.0185C8.71081 20.7316 12.3449 22.4422 16.8661 23.136C20.3282 23.6674 23.0037 20.7539 23.0037 17.5236V16.3668C23.0038 15.7512 22.7997 15.1529 22.4234 14.6655C22.0471 14.1781 21.5198 13.829 20.9238 13.6728L17.898 12.8803C17.2143 12.7011 16.4879 12.7881 15.866 13.1238L14.1668 14.0404C13.6062 14.3427 13.1109 14.3029 12.8131 14.0945C11.7671 13.3455 10.8551 12.4256 10.1154 11.3734C9.90361 11.0679 9.86857 10.5635 10.1727 10.005L11.0837 8.33415L11.0853 8.33096C11.4213 7.71037 11.5089 6.98476 11.3289 6.30053L10.5358 3.27715C10.3795 2.6817 10.0302 2.15478 9.54235 1.77878C9.05454 1.40278 8.45579 1.19888 7.8397 1.19897H6.68354ZM3.42684 6.97044C3.1577 5.21688 4.63715 3.58585 6.68354 3.58585H7.8397C7.92785 3.58583 8.0135 3.61503 8.08325 3.66888C8.15299 3.72273 8.20288 3.79819 8.22509 3.88342L9.01817 6.90679C9.04329 7.0043 9.03078 7.10768 8.98313 7.1964L8.0754 8.86244C7.47342 9.96518 7.28551 11.4721 8.14706 12.726C9.04896 14.0141 10.1644 15.1388 11.4452 16.0517C12.6937 16.9237 14.2018 16.7344 15.3022 16.1408L17.0015 15.2243C17.0902 15.1763 17.1937 15.1638 17.2913 15.1893L20.3171 15.9817C20.4024 16.0039 20.4779 16.0537 20.5318 16.1234C20.5857 16.1931 20.6149 16.2787 20.6149 16.3668V17.5236C20.6149 19.5668 18.9826 21.0451 17.2292 20.7761C13.1093 20.1444 9.98323 18.6184 7.73778 16.3429C5.49233 14.0658 4.03836 10.9454 3.42684 6.97044Z" fill="#FF6200"/>
<path d="M19.161 11.199C19.4876 11.199 19.8008 11.0692 20.0317 10.8383C20.2627 10.6073 20.3924 10.2941 20.3924 9.96751C20.3924 9.64091 20.2627 9.32768 20.0317 9.09674C19.8008 8.86579 19.4876 8.73605 19.161 8.73605H17.2071L21.6732 4.26995C21.8907 4.03651 22.0091 3.72774 22.0035 3.40871C21.9978 3.08968 21.8686 2.78529 21.643 2.55966C21.4174 2.33404 21.113 2.2048 20.7939 2.19917C20.4749 2.19354 20.1661 2.31196 19.9327 2.52949L15.4666 6.99559V5.04167C15.4666 4.71506 15.3368 4.40184 15.1059 4.17089C14.875 3.93995 14.5617 3.81021 14.2351 3.81021C13.9085 3.81021 13.5953 3.93995 13.3643 4.17089C13.1334 4.40184 13.0037 4.71506 13.0037 5.04167V9.96751C13.0037 10.6473 13.5554 11.199 14.2351 11.199H19.161Z" fill="#FF6200"/>
</g>
</g>
<defs>
<clipPath id="clip0_264_3285">
<rect width="23" height="23" fill="white" transform="translate(0.398193 0.800049)"/>
</clipPath>
<clipPath id="clip1_264_3285">
<rect width="23" height="23" fill="white" transform="translate(0.398193 0.800049)"/>
</clipPath>
</defs>
</svg>
