<svg width="19" height="19" viewBox="0 0 19 19" fill="none" xmlns="http://www.w3.org/2000/svg">
<path d="M6.28784 9.40799L8.47284 11.5781L13.1961 6.86377" stroke="#FF6200" stroke-width="1.5625"/>
<path d="M15.7345 3.72281V8.24719C15.7423 9.79485 15.3648 11.3201 14.6361 12.6855C14.1251 13.6815 13.3993 14.5515 12.5111 15.2328C11.6229 15.9141 10.5945 16.3896 9.50012 16.625C8.40574 16.3896 7.3773 15.9141 6.4891 15.2328C5.6009 14.5515 4.87512 13.6815 4.36418 12.6855C3.63539 11.3201 3.2579 9.79485 3.26574 8.24719V3.72281C7.38637 4.05828 9.50012 2.375 9.50012 2.375C9.50012 2.375 11.6139 4.05828 15.7345 3.72281Z" stroke="#FF6200" stroke-width="1.5625"/>
</svg>
